# xmcd CD database file
# Copyright (C) 1993-1996 Ti Kan
#
# Track frame offsets:
#     150
#     17325
#     35550
#     49950
#     71475
#     83475
#     105000
#     131850
#     147600
#     156150
#     172425
#     187125
#     187650
#     188100
#     188625
#     189150
#     189600
#     190125
#     190650
#     191100
#     191625
#     192150
#     192600
#     193125
#     193650
#     194100
#     194625
#     195150
#     195600
#     196125
#     196650
#     197100
#     197625
#     198150
#     198600
#     199125
#     199650
#     200100
#     200625
#     201150
#     201600
#     202125
#     202650
#     203100
#     203625
#     204150
#     204675
#     205125
#     205650
#     206100
#     206625
#     207150
#     207600
#     208125
#     208650
#     209100
#     209625
#     210150
#     210600
#     211125
#     211650
#     212100
#     212625
#     213150
#     213600
#     214125
#
# Disc length: 2938 seconds
#
# Revision: 0
# Processed by: cddbd v1.4b41PL1 Copyright (c) Steve Scherf et al.
# Submitted via: Clarion 0.9.2
#
DISCID=550b7842
DTITLE=Iko Iko - Protected By Voodoo
DYEAR=1900
DGENRE=
TTITLE0=Millers Woods
TTITLE1=The Flood
TTITLE2=Party Car
TTITLE3=Celebration
TTITLE4=Bag Me, Tag Me, Take me Away
TTITLE5=I've Got Gris-Gris
TTITLE6=Walk with the Zombie
TTITLE7=When the Devil Calls Collect
TTITLE8=Outside of the Law
TTITLE9=Jalapeño Be Thy Name
TTITLE10=Three Fingered Fellas Named Shorty
TTITLE11=
TTITLE12=
TTITLE13=
TTITLE14=
TTITLE15=
TTITLE16=
TTITLE17=
TTITLE18=
TTITLE19=
TTITLE20=
TTITLE21=
TTITLE22=
TTITLE23=
TTITLE24=
TTITLE25=
TTITLE26=
TTITLE27=
TTITLE28=
TTITLE29=
TTITLE30=
TTITLE31=
TTITLE32=
TTITLE33=
TTITLE34=
TTITLE35=
TTITLE36=
TTITLE37=
TTITLE38=
TTITLE39=
TTITLE40=
TTITLE41=
TTITLE42=
TTITLE43=
TTITLE44=
TTITLE45=
TTITLE46=
TTITLE47=
TTITLE48=
TTITLE49=
TTITLE50=
TTITLE51=
TTITLE52=
TTITLE53=
TTITLE54=
TTITLE55=
TTITLE56=
TTITLE57=
TTITLE58=
TTITLE59=
TTITLE60=
TTITLE61=
TTITLE62=
TTITLE63=
TTITLE64=
TTITLE65=Don't Drink Strychnine If You Ain't Livin' Right (unnamed hidden track
TTITLE65=)
EXTD=
EXTT0=
EXTT1=
EXTT2=
EXTT3=
EXTT4=
EXTT5=
EXTT6=
EXTT7=
EXTT8=
EXTT9=
EXTT10=
EXTT11=
EXTT12=
EXTT13=
EXTT14=
EXTT15=
EXTT16=
EXTT17=
EXTT18=
EXTT19=
EXTT20=
EXTT21=
EXTT22=
EXTT23=
EXTT24=
EXTT25=
EXTT26=
EXTT27=
EXTT28=
EXTT29=
EXTT30=
EXTT31=
EXTT32=
EXTT33=
EXTT34=
EXTT35=
EXTT36=
EXTT37=
EXTT38=
EXTT39=
EXTT40=
EXTT41=
EXTT42=
EXTT43=
EXTT44=
EXTT45=
EXTT46=
EXTT47=
EXTT48=
EXTT49=
EXTT50=
EXTT51=
EXTT52=
EXTT53=
EXTT54=
EXTT55=
EXTT56=
EXTT57=
EXTT58=
EXTT59=
EXTT60=
EXTT61=
EXTT62=
EXTT63=
EXTT64=
EXTT65=
PLAYORDER=
